<svg xmlns="http://www.w3.org/2000/svg" viewBox="0 0 24 24"><rect width="24" height="24" rx="6" fill="#0f7a4d"/><g transform="translate(2.4 2.4) scale(.8)"><defs><clipPath id="c"><path d="M12,3a9,9 0,1 1,0 18a9,9 0,1 1,0 -18z"/></clipPath></defs><path d="M12,3a9,9 0,1 1,0 18a9,9 0,1 1,0 -18z" fill="#fff"/><g clip-path="url(#c)"><path d="M12,4.8L9.05,2.66L10.18,-0.81L13.82,-0.81L14.95,2.66ZM18.85,9.78L19.97,6.31L23.62,6.31L24.74,9.78L21.8,11.92ZM16.23,17.82L19.88,17.82L21,21.29L18.05,23.43L15.11,21.29ZM7.77,17.82L8.89,21.29L5.95,23.43L3,21.29L4.12,17.82ZM5.15,9.78L2.2,11.92L-0.74,9.78L0.38,6.31L4.03,6.31Z" fill="#1d2a22"/></g><path d="M12,8.8L15.04,11.01L13.88,14.59L10.12,14.59L8.96,11.01Z" fill="#1d2a22"/><path d="M12,8.8L12,4.8M15.04,11.01L18.85,9.78M13.88,14.59L16.23,17.82M10.12,14.59L7.77,17.82M8.96,11.01L5.15,9.78" stroke="#1d2a22" stroke-width=".8" stroke-linecap="round" fill="none"/></g></svg>
